<svg xmlns="http://www.w3.org/2000/svg" version="1.1" xmlns:xlink="http://www.w3.org/1999/xlink" xmlns:svgjs="http://svgjs.dev/svgjs" width="1440" height="560" preserveAspectRatio="none" viewBox="0 0 1440 560"><g mask="url(&quot;#SvgjsMask1060&quot;)" fill="none"><path d="M861.4806503869005 176.24613719730502L881.7550382581126 32.97721457063898 763.6689044188249 78.30623438792009z" fill="rgba(34, 174, 18, 0.4)" class="triangle-float3"></path><path d="M292.26699068081894 302.76167397191585L193.6774712525642 346.6565560921581 237.57235337280645 445.2460755204129 336.1618728010612 401.3511934001706z" fill="rgba(34, 174, 18, 0.4)" class="triangle-float3"></path><path d="M321.671200735404 15.351283265741069L217.94506455758628 20.78733971643083 223.38112100827604 124.51347589424856 327.10725718609376 119.0774194435588z" fill="rgba(34, 174, 18, 0.4)" class="triangle-float3"></path><path d="M-17.235,390.648C-1.976,390.623,13.41,385.446,21.401,372.447C29.745,358.874,28.955,341.863,21.37,327.851C13.379,313.09,-0.45,301.066,-17.235,301.076C-34.006,301.086,-47.754,313.162,-55.762,327.897C-63.384,341.922,-64.444,358.971,-56.093,372.574C-48.082,385.622,-32.546,390.673,-17.235,390.648" fill="rgba(34, 174, 18, 0.4)" class="triangle-float1"></path><path d="M1327.3019568181483 164.19288413785998L1278.4136910925843 201.0328347778604 1358.1177499153669 255.9452580462062z" fill="rgba(34, 174, 18, 0.4)" class="triangle-float1"></path><path d="M196.59531042049525 364.60345216114405L307.93857199064706 411.86586265231216 243.85772091166334 253.26019059099224z" fill="rgba(34, 174, 18, 0.4)" class="triangle-float2"></path><path d="M482.451,359.165C526.951,361.642,570.459,339.662,592.89,301.149C615.458,262.402,612.767,213.907,589.313,175.69C566.897,139.164,525.261,119.216,482.451,121.192C442.81,123.022,410.251,149.899,391.412,184.825C373.584,217.877,374.05,256.648,391.433,289.936C410.344,326.151,441.659,356.895,482.451,359.165" fill="rgba(34, 174, 18, 0.4)" class="triangle-float2"></path><path d="M595.9577752440935 228.41226887235018L725.9319213427834 137.40339200167725 504.94889837342055 98.43812277366018z" fill="rgba(34, 174, 18, 0.4)" class="triangle-float2"></path><path d="M1128.69,625.299C1173.367,623.165,1204.65,585.836,1226.005,546.535C1246.177,509.411,1254.3,466.517,1235.538,428.661C1214.506,386.223,1176.02,351.96,1128.69,350.178C1078.572,348.291,1031.311,376.223,1006.93,420.052C983.173,462.759,988.889,514.637,1013.823,556.668C1038.214,597.783,1080.939,627.579,1128.69,625.299" fill="rgba(34, 174, 18, 0.4)" class="triangle-float2"></path><path d="M772.5300814146386 130.26368091537796L801.3406397985486 5.47144235081673 676.5484012339874-23.339116033093262 647.7378428500774 101.45312253146798z" fill="rgba(34, 174, 18, 0.4)" class="triangle-float1"></path><path d="M1314.7070146902395-35.39715669718272L1227.44887946178-12.016409829671325 1306.1490673772767 107.18041957926208z" fill="rgba(34, 174, 18, 0.4)" class="triangle-float3"></path><path d="M746.7056724194816 228.51585618813624L650.9404909609448 311.7632583746068 734.1878931474153 407.5284398331437 829.9530746059522 324.28103764667316z" fill="rgba(34, 174, 18, 0.4)" class="triangle-float2"></path></g><defs><mask id="SvgjsMask1060"><rect width="1440" height="560" fill="#ffffff"></rect></mask><style>
                @keyframes float1 {
                    0%{transform: translate(0, 0)}
                    50%{transform: translate(-10px, 0)}
                    100%{transform: translate(0, 0)}
                }

                .triangle-float1 {
                    animation: float1 5s infinite;
                }

                @keyframes float2 {
                    0%{transform: translate(0, 0)}
                    50%{transform: translate(-5px, -5px)}
                    100%{transform: translate(0, 0)}
                }

                .triangle-float2 {
                    animation: float2 4s infinite;
                }

                @keyframes float3 {
                    0%{transform: translate(0, 0)}
                    50%{transform: translate(0, -10px)}
                    100%{transform: translate(0, 0)}
                }

                .triangle-float3 {
                    animation: float3 6s infinite;
                }
            </style></defs></svg>